<?xml version="1.0" encoding="windows-1252"?>
<!-- Generator: Adobe Illustrator 19.1.1, SVG Export Plug-In . SVG Version: 6.00 Build 0)  -->
<svg version="1.1" id="Layer_1" xmlns="http://www.w3.org/2000/svg" xmlns:xlink="http://www.w3.org/1999/xlink" x="0px" y="0px" viewBox="0 0 48 48" style="enable-background:new 0 0 48 48;" xml:space="preserve">
<g>
	<g>
		<path style="fill:#4CAF50;" d="M43.177,23.114c0,0-0.928-0.533-1.041-1.267c-0.009,0.008-0.015,0.02-0.023,0.029    c-0.114-0.98-0.31-1.933-0.572-2.859c0.014,0.009,0.025,0.023,0.038,0.031c-0.208-0.694,0.464-1.598,0.464-1.598    c0.392-0.34,0.608-0.688,0.43-1.119c-0.179-0.431-0.577-0.524-1.095-0.488c0,0-1.061-0.137-1.446-0.772    c-0.003,0.009-0.004,0.02-0.008,0.029c-0.476-0.85-1.021-1.655-1.622-2.414c0.015,0.003,0.03,0.011,0.044,0.013    c-0.457-0.562-0.183-1.655-0.183-1.655c0.232-0.464,0.298-0.868-0.031-1.198c-0.33-0.33-0.734-0.263-1.198-0.031    c0,0-1.032,0.279-1.631-0.159c0,0.01,0.003,0.023,0.003,0.033c-0.756-0.598-1.557-1.141-2.404-1.616    c0.009-0.002,0.018-0.001,0.027-0.003c-0.637-0.344-0.802-1.459-0.802-1.459c0.037-0.518-0.057-0.917-0.488-1.095    c-0.431-0.179-0.779,0.037-1.119,0.43c0,0-0.847,0.653-1.569,0.477c0.003,0.007,0.009,0.014,0.012,0.022    c-0.917-0.26-1.861-0.454-2.831-0.568c0.006-0.004,0.014-0.006,0.019-0.01c-0.721-0.074-1.299-1.041-1.299-1.041    c-0.164-0.493-0.403-0.825-0.87-0.825s-0.705,0.332-0.87,0.825c0,0-0.533,0.928-1.267,1.041c0.003,0.003,0.006,0.004,0.009,0.007    c-0.965,0.112-1.904,0.305-2.818,0.563c0.003-0.004,0.008-0.008,0.01-0.013c-0.694,0.208-1.598-0.464-1.598-0.464    c-0.34-0.392-0.688-0.608-1.119-0.43c-0.431,0.179-0.524,0.577-0.488,1.095c0,0-0.137,1.056-0.768,1.444    c-0.837,0.469-1.63,1.006-2.379,1.597c0-0.003,0.002-0.005,0.003-0.008c-0.562,0.457-1.655,0.183-1.655,0.183    c-0.464-0.233-0.867-0.299-1.197,0.031c-0.33,0.33-0.263,0.734-0.031,1.198c0,0,0.279,1.032-0.159,1.631c0.001,0,0.002,0,0.002,0    c-0.603,0.764-1.151,1.571-1.627,2.426c-0.377,0.59-1.419,0.749-1.419,0.749c-0.518-0.037-0.917,0.057-1.095,0.488    c-0.179,0.431,0.037,0.779,0.43,1.119c0,0,0.643,0.836,0.478,1.554c-0.263,0.929-0.459,1.884-0.572,2.867    c-0.116,0.695-1.028,1.244-1.028,1.244c-0.493,0.164-0.825,0.403-0.825,0.87s0.332,0.705,0.825,0.87c0,0,0.89,0.515,1.03,1.228    c0.113,0.979,0.31,1.931,0.57,2.857c0.19,0.691-0.468,1.579-0.468,1.579c-0.392,0.34-0.608,0.688-0.43,1.119    c0.179,0.431,0.577,0.524,1.095,0.488c0,0,1.012,0.135,1.417,0.735c0.475,0.849,1.018,1.651,1.617,2.41    c-0.001,0-0.002-0.001-0.003-0.001c0.457,0.562,0.183,1.655,0.183,1.655c-0.232,0.464-0.299,0.868,0.031,1.198    c0.33,0.33,0.734,0.263,1.198,0.031c0,0,1.032-0.279,1.631,0.159c0-0.002-0.001-0.004-0.001-0.007    c0.749,0.59,1.542,1.127,2.379,1.596c0.633,0.347,0.797,1.455,0.797,1.455c-0.037,0.518,0.057,0.917,0.488,1.095    c0.431,0.179,0.779-0.037,1.119-0.43c0,0,0.847-0.653,1.569-0.477c-0.002-0.004-0.005-0.008-0.006-0.011    c0.913,0.257,1.852,0.45,2.818,0.562c-0.003,0.003-0.009,0.004-0.012,0.007c0.721,0.073,1.299,1.041,1.299,1.041    c0.164,0.493,0.403,0.825,0.87,0.825s0.705-0.332,0.87-0.825c0,0,0.533-0.928,1.267-1.041c-0.004-0.004-0.01-0.007-0.014-0.011    c0.97-0.114,1.914-0.309,2.831-0.569c-0.005,0.008-0.014,0.015-0.019,0.023c0.694-0.208,1.598,0.464,1.598,0.464    c0.34,0.392,0.688,0.608,1.119,0.43c0.431-0.179,0.524-0.577,0.488-1.095c0,0,0.137-1.061,0.772-1.446    c-0.006-0.003-0.015-0.003-0.021-0.006c0.847-0.476,1.65-1.018,2.405-1.618c-0.002,0.013-0.01,0.026-0.011,0.039    c0.562-0.457,1.655-0.183,1.655-0.183c0.464,0.232,0.868,0.298,1.198-0.031c0.33-0.33,0.264-0.734,0.031-1.198    c0,0-0.279-1.032,0.159-1.631c-0.012,0-0.025,0.004-0.037,0.004c0.6-0.759,1.144-1.563,1.619-2.413    c0.003,0.011,0.001,0.024,0.003,0.036c0.344-0.637,1.459-0.802,1.459-0.802c0.518,0.037,0.917-0.057,1.095-0.488    c0.179-0.431-0.037-0.779-0.43-1.119c0,0-0.653-0.847-0.477-1.569c-0.012,0.004-0.023,0.014-0.036,0.02    c0.262-0.926,0.458-1.878,0.571-2.858c0.009,0.011,0.012,0.028,0.021,0.039c0.073-0.721,1.041-1.299,1.041-1.299    c0.493-0.164,0.825-0.403,0.825-0.87S43.67,23.278,43.177,23.114z"/>
	</g>
</g>
<g>
	<path style="fill:#2E7D32;" d="M28.758,9.783l1.563-3.706c-0.292,0.181-0.859,0.468-1.368,0.344   c0.003,0.007,0.009,0.014,0.012,0.022c-0.917-0.26-1.861-0.454-2.831-0.568c0.006-0.004,0.014-0.006,0.019-0.01   C25.644,5.813,25.212,5.322,25,5.037V9.05C26.305,9.137,27.565,9.384,28.758,9.783z"/>
	<path style="fill:#2E7D32;" d="M12.104,14.888c0.266-0.347,0.547-0.68,0.841-1.002l-3.187-2.893   c0.014,0.031,0.022,0.06,0.038,0.091c0,0,0.281,1.032-0.157,1.632c0.007,0,0.016-0.003,0.025-0.003   c-0.59,0.749-1.129,1.547-1.605,2.4c-0.002-0.007,0-0.015-0.002-0.022c-0.239,0.445-0.847,0.659-1.194,0.748l3.595,1.514   C10.971,16.292,11.475,15.61,12.104,14.888z"/>
	<path style="fill:#2E7D32;" d="M17.375,10.5L15.81,6.854c-0.08,0.335-0.278,0.935-0.725,1.207c0.007,0.003,0.016,0.004,0.024,0.007   c-0.833,0.464-1.638,0.994-2.404,1.598c0.001-0.007,0.005-0.014,0.006-0.021c-0.434,0.353-1.171,0.271-1.488,0.215l2.882,2.849   C15.3,11.641,15.993,11.171,17.375,10.5z"/>
	<path style="fill:#2E7D32;" d="M9.605,19.811c0.061-0.211,0.129-0.419,0.2-0.627l-3.727-1.505c0.181,0.292,0.468,0.859,0.344,1.368   c0.007-0.003,0.014-0.009,0.022-0.012c-0.26,0.917-0.454,1.861-0.568,2.831c-0.004-0.006-0.006-0.014-0.01-0.019   C5.813,22.356,5.322,22.788,5.037,23h3.984C9.099,21.661,9.258,20.886,9.605,19.811z"/>
	<path style="fill:#2E7D32;" d="M38.207,19.215c0.221,0.655,0.399,1.328,0.528,2.021c0.118,0.52,0.192,1.054,0.234,1.764h4.053   c-0.269-0.187-0.803-0.62-0.888-1.166c-0.005,0.005-0.01,0.013-0.015,0.02c-0.112-0.947-0.294-1.893-0.561-2.832   c0.006,0.004,0.011,0.01,0.017,0.014c-0.145-0.482,0.131-1.06,0.314-1.369L38.207,19.215z"/>
	<path style="fill:#2E7D32;" d="M35.276,14.13c0.872,0.996,1.611,2.107,2.197,3.309l3.673-1.629   c-0.335-0.08-0.935-0.278-1.207-0.725c-0.003,0.007-0.004,0.016-0.007,0.024c-0.464-0.833-0.994-1.638-1.598-2.404   c0.007,0.001,0.014,0.005,0.021,0.006c-0.353-0.434-0.271-1.171-0.215-1.488L35.276,14.13z"/>
	<path style="fill:#2E7D32;" d="M34.114,12.946l2.893-3.188c-0.031,0.014-0.06,0.022-0.091,0.038c0,0-1.032,0.281-1.632-0.157   c0,0.007,0.003,0.016,0.003,0.025c-0.749-0.59-1.547-1.129-2.4-1.605c0.007-0.002,0.015,0,0.022-0.002   c-0.445-0.239-0.659-0.847-0.748-1.194l-1.517,3.703C31.914,11.196,33.079,11.998,34.114,12.946z"/>
	<path style="fill:#2E7D32;" d="M23,9.021V4.978c-0.187,0.269-0.62,0.803-1.166,0.888c0.005,0.005,0.013,0.01,0.02,0.015   c-0.947,0.112-1.893,0.294-2.832,0.561c0.004-0.006,0.01-0.011,0.014-0.017c-0.482,0.145-1.06-0.131-1.369-0.314l1.521,3.66   C20.694,9.247,21.474,9.112,23,9.021z"/>
	<path style="fill:#2E7D32;" d="M36.189,32.721c-0.046,0.063-0.094,0.128-0.143,0.191c-0.293,0.395-0.604,0.774-0.933,1.138   l3.129,2.958c-0.014-0.031-0.022-0.06-0.038-0.091c0,0-0.281-1.032,0.157-1.632c-0.007,0-0.016,0.003-0.025,0.003   c0.59-0.749,1.129-1.547,1.605-2.4c0.002,0.007,0,0.015,0.002,0.022c0.239-0.445,0.847-0.659,1.194-0.748l-3.7-1.523   C37.075,31.368,36.659,32.064,36.189,32.721z"/>
	<path style="fill:#2E7D32;" d="M30.656,37.427l1.534,3.719c0.08-0.335,0.278-0.935,0.725-1.207   c-0.007-0.003-0.016-0.004-0.024-0.007c0.833-0.464,1.638-0.994,2.404-1.598c-0.001,0.007-0.005,0.014-0.006,0.021   c0.434-0.353,1.171-0.271,1.488-0.215l-2.862-2.906C32.934,36.101,31.841,36.839,30.656,37.427z"/>
	<path style="fill:#2E7D32;" d="M38.656,27.175c-0.073,0.393-0.175,0.794-0.323,1.257c-0.008,0.027-0.018,0.053-0.026,0.08   c-0.029,0.089-0.055,0.175-0.088,0.27l3.704,1.54c-0.181-0.292-0.468-0.859-0.344-1.368c-0.007,0.003-0.014,0.009-0.022,0.012   c0.26-0.917,0.454-1.861,0.568-2.831c0.004,0.006,0.006,0.014,0.01,0.019c0.052-0.509,0.542-0.941,0.828-1.153H38.95   C38.901,25.74,38.809,26.468,38.656,27.175z"/>
	<path style="fill:#2E7D32;" d="M26.882,38.717c-0.367,0.075-0.742,0.131-1.167,0.178c-0.117,0.013-0.233,0.026-0.351,0.036   c-0.119,0.011-0.236,0.023-0.365,0.034v4.057c0.187-0.269,0.62-0.803,1.166-0.888c-0.005-0.005-0.013-0.01-0.02-0.015   c0.947-0.112,1.893-0.294,2.832-0.561c-0.004,0.006-0.01,0.011-0.014,0.017c0.482-0.145,1.06,0.131,1.369,0.314l-1.486-3.705   C28.209,38.402,27.556,38.586,26.882,38.717z"/>
	<path style="fill:#2E7D32;" d="M9.75,28.875C9.226,27.369,9.112,26.526,9.021,25H4.978c0.269,0.187,0.803,0.62,0.888,1.166   c0.005-0.005,0.01-0.013,0.015-0.02c0.112,0.947,0.294,1.893,0.561,2.832c-0.006-0.004-0.011-0.01-0.017-0.014   c0.145,0.482-0.131,1.06-0.314,1.369L9.75,28.875z"/>
	<path style="fill:#2E7D32;" d="M12.708,33.896c-1.068-1.195-1.516-1.868-2.188-3.25L6.854,32.19   c0.335,0.08,0.935,0.278,1.207,0.725c0.003-0.007,0.004-0.016,0.007-0.024c0.464,0.833,0.994,1.638,1.598,2.404   c-0.007-0.001-0.014-0.005-0.021-0.006c0.353,0.434,0.271,1.171,0.215,1.488L12.708,33.896z"/>
	<path style="fill:#2E7D32;" d="M22.169,38.877c-1.063-0.094-1.78-0.248-2.94-0.648l-1.55,3.693   c0.292-0.181,0.859-0.468,1.368-0.344c-0.003-0.007-0.009-0.014-0.012-0.022c0.917,0.26,1.861,0.454,2.831,0.568   c-0.006,0.004-0.014,0.006-0.019,0.01c0.509,0.052,0.941,0.542,1.153,0.828V38.95C22.721,38.931,22.444,38.911,22.169,38.877z"/>
	<path style="fill:#2E7D32;" d="M13.929,35.093l-2.936,3.149c0.031-0.014,0.06-0.022,0.091-0.038c0,0,1.032-0.281,1.632,0.157   c0-0.007-0.003-0.016-0.003-0.025c0.749,0.59,1.547,1.129,2.4,1.605c-0.007,0.002-0.015,0-0.022,0.002   c0.445,0.239,0.659,0.847,0.748,1.194l1.535-3.658c-1.176-0.568-1.886-1.049-2.701-1.743   C14.417,35.531,14.172,35.314,13.929,35.093z"/>
</g>
<path style="fill:#FF3D00;" d="M12.474,18C11.537,19.796,11,21.834,11,24s0.537,4.204,1.474,6h23.051C36.463,28.204,37,26.166,37,24  s-0.537-4.204-1.474-6H12.474z"/>
<path style="fill:none;stroke:#A5D6A7;stroke-width:2;stroke-linejoin:round;stroke-miterlimit:10;" d="M14.745,13.473  c5.501-4.838,13.89-4.631,19.143,0.623l0,0c5.297,5.297,5.464,13.782,0.5,19.28 M10.771,19.5c-0.146,0.375-0.305,0.884-0.305,0.884  c-1.244,4.67-0.048,9.856,3.616,13.519s8.849,4.86,13.519,3.616c0,0,0.491-0.15,0.802-0.271"/>
<path style="fill:#FFFFFF;" d="M17.503,20.659c-0.178-0.201-0.41-0.363-0.687-0.481C16.541,20.06,16.208,20,15.828,20h-1.604  C14.1,20,14,20.099,14,20.221v7.558C14,27.901,14.1,28,14.224,28h1.496c0.78,0,1.363-0.203,1.732-0.603  C17.816,27.002,18,26.438,18,25.72v-0.425c0-0.429-0.07-0.782-0.207-1.05c-0.09-0.175-0.211-0.324-0.363-0.445  c0.022-0.018,0.044-0.035,0.064-0.053c0.11-0.096,0.205-0.208,0.282-0.334c0.077-0.127,0.135-0.274,0.171-0.437  C17.981,22.816,18,22.625,18,22.408v-0.276c0-0.268-0.038-0.53-0.111-0.778C17.812,21.092,17.682,20.859,17.503,20.659z   M16.37,22.925c-0.1,0.144-0.355,0.174-0.552,0.174h-0.271v-1.638h0.228c0.202,0,0.467,0.03,0.585,0.172  c0.106,0.129,0.16,0.339,0.16,0.625C16.518,22.559,16.468,22.783,16.37,22.925z M15.546,24.497h0.26  c0.169,0,0.306,0.019,0.398,0.057c0.083,0.034,0.144,0.08,0.188,0.141c0.048,0.066,0.08,0.154,0.095,0.261  c0.02,0.128,0.03,0.285,0.03,0.465c0,0.177-0.007,0.341-0.02,0.489c-0.012,0.125-0.042,0.231-0.092,0.317  c-0.042,0.074-0.104,0.132-0.191,0.176c-0.093,0.047-0.234,0.071-0.42,0.071h-0.248V24.497z M23.279,20h-4.058  C19.099,20,19,20.099,19,20.221v7.558C19,27.901,19.099,28,19.221,28h4.058c0.122,0,0.221-0.099,0.221-0.221v-1.214  c0-0.122-0.099-0.221-0.221-0.221h-2.755v-1.531h2.479c0.122,0,0.221-0.099,0.221-0.221v-1.133c0-0.122-0.099-0.221-0.221-0.221  h-2.479v-1.613h2.755c0.122,0,0.221-0.099,0.221-0.221v-1.183C23.5,20.099,23.4,20,23.279,20z M28.779,20h-4.082  c-0.122,0-0.221,0.099-0.221,0.221v7.558c0,0.122,0.099,0.221,0.221,0.221h4.082C28.901,28,29,27.901,29,27.779v-1.214  c0-0.122-0.099-0.221-0.221-0.221H26v-1.531h2.503c0.122,0,0.221-0.099,0.221-0.221v-1.133c0-0.122-0.099-0.221-0.221-0.221H26  v-1.613h2.779c0.122,0,0.221-0.099,0.221-0.221v-1.183C29,20.099,28.9,20,28.779,20z M34.189,27.708l-1.078-3.282  c0.298-0.203,0.513-0.461,0.643-0.767C33.9,23.318,34,22.908,34,22.44c0-2.016-1.152-2.44-2.096-2.44h-1.69  C30.096,20,30,20.099,30,20.221v7.558C30,27.901,30.096,28,30.215,28h1.051c0.118,0,0.215-0.099,0.215-0.221v-3.006h0.257  l0.932,3.072C32.696,27.937,32.779,28,32.873,28h1.113c0.069,0,0.134-0.034,0.174-0.092C34.2,27.851,34.211,27.775,34.189,27.708z   M32.493,22.418c0,0.179-0.01,0.337-0.028,0.471c-0.017,0.116-0.047,0.211-0.091,0.285c-0.035,0.06-0.088,0.107-0.16,0.142  c-0.079,0.038-0.2,0.058-0.351,0.058H31.48v-1.914h0.331c0.162,0,0.292,0.019,0.382,0.057c0.076,0.033,0.133,0.08,0.175,0.146  c0.048,0.073,0.08,0.169,0.096,0.28C32.483,22.082,32.493,22.239,32.493,22.418z"/>
</svg>